<?xml version="1.0" encoding="UTF-8"?>
<svg id="Capa_2" data-name="Capa 2" xmlns="http://www.w3.org/2000/svg" viewBox="0 0 201.63 110.88">
  <defs>
    <style>
      .cls-1, .cls-2, .cls-3, .cls-4, .cls-5 {
        stroke-miterlimit: 10;
      }

      .cls-1, .cls-2, .cls-4 {
        fill: #cb3234;
      }

      .cls-1, .cls-2, .cls-4, .cls-5 {
        stroke: #fff;
      }

      .cls-1, .cls-4 {
        stroke-width: .5px;
      }

      .cls-6, .cls-2, .cls-4 {
        opacity: .96;
      }

      .cls-6, .cls-3 {
        fill: #fff;
      }

      .cls-2 {
        stroke-width: .75px;
      }

      .cls-7 {
        opacity: .9;
      }

      .cls-3 {
        stroke: #000;
        stroke-width: .25px;
      }

      .cls-5 {
        stroke-width: .2px;
      }
    </style>
  </defs>
  <g id="langosta" class="cls-7">
    <path class="cls-4" d="M44.41,78.32c-1.7,2.2-10.57,.73-15.29-4.62-7.47-8.46-3.11-24.79,3.56-34.49,6.37-9.28,17.48-16.34,21.51-13.78,1.6,1.01,2.46,3.78,2.76,4.71,.5,1.59,.99,4.35,.49,7.42-.25,1.52-.58,2.13-.22,3.11,.64,1.74,2.56,2.21,2.4,3.24-.11,.66-.93,.65-1.42,1.69-.35,.73-.28,1.43-.2,2.1,.28,2.36,.71,4.28,.83,4.83,.38,1.81,.29,3.19,.18,5.07-.27,4.3-1.69,7.5-2.13,8.44-.2,.43-1.62,3.38-4.27,6.18-1.29,1.36-2.87,2.68-3.73,3.24-.29,.19-.67,.41-1.24,.84-.73,.55-1.05,.92-1.16,.84-.16-.11,.38-1.13,.53-1.42,0,0,.13-.24,2.04-5.2,1.43-3.69,1.5-7.28,1.51-8.4,.04-3.51-.71-6.59-1.07-6.58-.31,.01-1.16,2.76-1.07,5.16,0,.26,.05,1.13-.31,1.27-.26,.11-.5-.25-1.12-.47-.47-.17-1.38-.35-1.69,0-.36,.4,.36,1.19,.81,2.96,.29,1.13,.3,2,.32,2.82,0,.39,.06,3.25-.65,3.4-.29,.06-.43-.39-1.28-.82-.3-.15-1.06-.54-1.37-.38-1.01,.53,2.87,6.77,1.28,8.82Z"/>
    <path class="cls-4" d="M56.79,27.71c-1.24-1.56-2.49-1.99-2.44-3.16,.06-1.29,1.81-2.54,3.71-2.92,.5-.1,2-.39,3.09,.13,1.63,.79,.81,2.67,.55,7.8-.17,3.26-1.22,6.56-.55,9.78,.09,.41,.34,1.49-.36,1.85-.48,.24-1.35,0-1.82-.26-1.79-.97-.16-3.29-.55-7.67-.22-2.47-.34-3.92-1.64-5.55Z"/>
    <path class="cls-4" d="M45.66,11.2c.47,.44,6.09-8.27,11.05-6.97,4.49,1.17,6.87,10.13,6.82,16.44-.02,2.17-.35,7.43-.93,12.67-.32,2.93-.65,5.19,.73,7.31,1.09,1.67,3.24,3.25,5.54,3.09,.15-.01,1.87-.14,2-.8,.18-.89-3.71-1.13-5.41-3.77-.61-.95-.73-1.88-.68-4.77,.09-5.68,.64-8.12,.79-13.16,.08-2.82-.02-4.44-.23-5.97-.17-1.29-.43-3.15-1.27-5.41-.84-2.25-1.53-4.13-3.38-5.69-.34-.29-2.12-1.79-4.36-2.04-6.15-.69-11.15,8.62-10.67,9.07Z"/>
    <path class="cls-4" d="M66.64,21.18c-.64,.44,.1,1.81,.12,5.42,.02,2.42-.29,4.67-.37,5.17-.17,1.16-.18,2.36-.49,3.49-.24,.87-.51,1.47-.21,1.99,.21,.38,.51,.36,1.55,.98,.97,.58,.96,.75,1.22,.77,1.01,.1,1.8-2.53,3.04-5.17,2.29-4.85,4.14-5.54,3.65-7.23-.18-.64-.51-.74-4.51-3.36-2.89-1.89-3.56-2.38-4.02-2.07Z"/>
    <path class="cls-4" d="M71.4,38.78c-.3-.44,3.27-2.06,4.46-5.84,.98-3.13-.39-5.45,.74-6.14,.87-.53,2.34,.46,4.75,2.1,2.48,1.68,3.84,2.6,3.71,3.59-.15,1.15-2.16,1.34-6.24,2.99-4.56,1.85-7.16,3.69-7.43,3.29Z"/>
    <path class="cls-1" d="M93.13,66.5c3.33-.91,4.87-3.84,7.66-8,3.61-5.38,3.51-4.16,4.65-6.4,.72-1.41,5.16-10.17,.82-16.4-2.38-3.42-6.41-4.62-8.34-5.2-3.34-1-6.1-.8-7.8-.67-5.74,.46-9.4,2.74-16.14,6.93,0,0-4.38,2.73-3.97,3.6,.23,.48,1.73-.08,2.33,.67,.63,.8,0,2.81-1.37,3.87-1.81,1.39-3.52,.04-5.2,1.33-1.5,1.16-1.73,3.49-1.37,5.07,.4,1.72,1.55,2.76,2.05,3.2,1.19,1.04,2.24,1.25,3.42,1.73,2.61,1.07,2.88,2.3,5.61,4.4,1.52,1.17,3.75,2.16,8.21,4.13,3.7,1.64,5.54,2.19,7.8,2,.43-.04,.97-.08,1.64-.27Z"/>
    <path class="cls-2" d="M83.79,72.8c.02-.11-2.08-.56-2.8-.73-4.38-1.05-12.82-4.83-12.67-8.94,.09-2.53,3.41-5.11,6.27-5.86,2.28-.59,3.75,.11,4.33-.8,.93-1.46-1.52-5.39-3.27-5.2-.95,.1-.9,1.32-2.47,3.27-2.38,2.96-4.52,2.68-5.8,5.13-.99,1.9-.65,3.88-.6,4.13,1.23,6.62,13.64,8.63,14.33,8.73,.58,.09,2.65,.37,2.67,.27Z"/>
    <path class="cls-4" d="M98.73,66.31c-.27-.5,1-1.16,2.95-3.65,1.76-2.25,1.8-3.08,3.03-3.58,.61-.24,.86-.15,3.75,.08,3.57,.27,4.49,.22,4.71,.76,.08,.19,.09,.5-1.2,2.13-1.4,1.77-2.09,2.66-2.87,3.12-1.08,.64-1.58,.41-5.03,.76-3.81,.39-5.09,.87-5.35,.38Z"/>
    <path class="cls-4" d="M114.85,69.75c5.8-.82,10.89,2.89,11.93,3.65,4,2.91,5.68,6.47,6.87,5.81,.81-.45,.68-2.47,.6-3.73-.03-.43-.34-4.54-2.87-7.9-4.45-5.91-14.24-7.47-19.27-2.98-2.29,2.05-3.79,5.53-3.07,6.48,.63,.83,2.48-.87,5.8-1.34Z"/>
    <path class="cls-4" d="M59.46,92.87c-.31-.41,.45-1.48,.73-1.87,7.55-10.51,17.48-13.47,17.48-13.47,8.9-2.65,17.14-.83,18.32,.14,.08,.07,.51,.44,.87,.32,.58-.2,.27-1.44,.8-2.32,.73-1.21,2.52-.82,5.03-1.35,2.85-.6,2.81-1.59,5.91-2.59,2.92-.94,5.41-.85,6.4-.8,4.38,.2,7.52,1.94,9.27,2.93,3.21,1.82,5.58,3.17,6.8,6,1.75,4.05-.11,8.26-1,10.27-1.61,3.63-4.07,6.02-6.47,7.93-7.93,6.34-16.72,8.83-20.72,9.8-8.99,2.19-19.41,4.73-30.48,.4,0,0-7.69-3-15.07-12.27-.2-.25-.83-1.05-.6-1.4,.13-.2,.49-.17,1.07-.13,.84,.05,1.68,0,2.51,.06,1.63,.11,1.7-.01,2.49,.07,2.8,.3,4.7,2.17,5,1.8,.08-.1-.06-.24-.2-1.27-.06-.45-.05-.56,0-.67,.12-.26,.43-.4,1.2-.53,1.1-.18,1.8-.13,1.8-.13,1.37,.1,2.44,.17,3.8,.67,1.23,.45,1.94,.96,2.27,.67,.13-.12,.13-.35,.13-.8,0-.93-.27-1.33-.07-1.53,.1-.1,.25-.09,.87,0,.77,.11,1.16,.16,1.27,.19,1.34,.31,2.66,.19,5.8,.61,1.52,.2,1.88,.32,1.93,.2,.14-.35-2.45-1.96-5.4-2.8-1.74-.5-3.13-.59-4.27-.67-.56-.04-2.99-.17-6.67,.4-3.99,.62-5.99,.93-8.27,1.73-.9,.32-2.21,.83-2.53,.4Z"/>
    <path class="cls-4" d="M96.12,28.6c.05,.45,1.73,.33,3.92,.87,.97,.24,4.34,1.12,6.67,3.87,.8,.94,1.19,1.77,1.58,2.6,1.6,3.38,1.51,6.47,1.44,8.07-.05,1.24-.19,4-1.51,6.73-.53,1.09-1.3,2.3-1.79,3.07-.7,1.1-1.06,1.66-1.58,2.2-1.17,1.21-2.16,1.55-2.06,1.87,.13,.42,2.04,.22,2.89,.13,0,0,6.15-.61,13.44-.44,1.34,.03,2.69-.09,4.03-.09,.98,0,1.84,.02,2.89-.33,0,0,.96-.33,1.86-1,1.76-1.33,8.23-12.37,2.89-23.73-.82-1.74-4.55-9.69-11.42-10.8-4.26-.69-9.88,1.25-10.31,1.4-1.23,.43-1.02,.48-3.44,1.4-2.64,1.01-5.21,2.17-7.84,3.2-.99,.39-1.69,.7-1.65,1Z"/>
    <path class="cls-4" d="M130.19,63.76c-.55,.13-1.23-.2-2.6-.84-1.35-.64-2.02-.96-2.24-1.24-1.28-1.69,2.94-5.63,11.1-15.65,.9-1.1,1.49-1.85,2.2-1.75,2.46,.33,3.68,10.54,3.27,18.52,0,0-.37,7.07-.27,15.59,.01,1.02,.02,1.53,.2,2.01,.18,.48,.44,.87,.27,1.1-.15,.21-.46,.05-.87,.19-.42,.15-.68,.51-1.12,1.43-.73,1.5-.73,1.95-.88,1.95-.47,0-1.1-4.49-1.06-9.74,0-.39,0-.8,.06-2.28,.18-5.59-.36-11.17-.47-16.76,0-.42-.02-1.14-.4-1.3-.88-.38-3.6,2.3-5.13,5.46-.86,1.78-1.04,3.08-2.07,3.31Z"/>
    <path class="cls-4" d="M121.84,21.21c-.04-.24,1.08-.61,1.34-.7,.89-.3,1.6-.4,1.73-.42,1.13-.16,2.38-.33,4.3-.28,1.38,.04,2.08,.06,2.7,.35,1.07,.5,1.65,1.38,1.94,1.83,3.16,4.91,4.97,9.55,4.97,9.55s1.77,4.54,2.52,10.74c.04,.36,.13,1.2-.35,1.61-.45,.39-1.08,.1-1.73,.07-2.5-.13-4.28,3.51-4.99,3.09-.25-.14-.11-.63-.07-1.97,0,0,0-.35-.14-3.09-.29-5.32-2.98-10.74-2.98-10.74s-2.5-5.04-7.28-9.06c-.62-.52-1.11-.7-1.11-.7-.5-.18-.83-.15-.85-.28Z"/>
    <path class="cls-4" d="M132.92,19.67c-.09,.29,.77,.72,1.44,1.13,1.16,.72,1.91,1.55,3.4,3.22,1.07,1.2,3.06,3.9,3.99,7.51,.84,3.26,.85,7.34,.86,12,0,.35,0,1.01,.29,1.8,.23,.64,.55,1.08,4.09,3.93,.25,.2,.67,.53,1.15,.47,.58-.08,.93-.68,1.08-.93,3.08-5.44,2.51-11.8,2.51-11.8-.46-5.1-2.19-8.68-2.58-9.47-2.07-4.13-4.25-5.64-5.24-7.13-.07-.1-.28-.43-.7-.65-.38-.2-.74-.22-.9-.22-4.15-.2-5.37-.17-7.81-.13-.81,.02-1.51,.02-1.58,.27Z"/>
    <path class="cls-4" d="M144.19,20.14c.07-.23,1.46-.02,1.6,0,4.85,.74,7.28,1.1,9.16,2.53,1.92,1.46,2.63,3.25,3.61,5.73,1.7,4.32,1.48,8.15,1.32,11-.1,1.67-.19,.74-.76,5.27-.22,1.76-.26,2.3-.76,2.67-1.27,.92-4.36-.17-5.42-2.13-.47-.87-.43-1.7-.42-1.93,.08-1.75,.25-7.18-.07-9.87,0,0-.59-5.03-5.81-11.12-.7-.82-1.2-1.21-1.2-1.21-.72-.57-1.3-.78-1.25-.93Z"/>
    <path class="cls-4" d="M157.22,23.59c.21-.27,1.47,.09,1.89,.21,2.91,.83,13.12,6.18,11.53,12.24-.46,1.76-1.81,3.17-2.56,3.96-1.02,1.07-2.33,1.89-4.94,3.53-1.65,1.03-2.38,1.38-2.68,1.2-.16-.1-.16-.32,.34-2.2,.3-1.15,.39-1.4,.5-1.93,.18-.87,.22-1.52,.25-2.07,.26-4.35-.6-7.52-.6-7.52-.83-3.06-1.35-4.99-2.92-6.35-.22-.19-1-.84-.8-1.08Z"/>
    <path class="cls-4" d="M154.99,21.78c0,.09,.7,.17,.9,.2,2.27,.29,9.76,2.37,14.9,8.33,1.76,2.04,3.74,4.34,3.6,7.27-.07,1.49-.19,4.09-1.91,5.53-.23,.19-.57,.43-.59,.8-.01,.24,.09,.99,4.23,2.6,1.98,.77,2.98,1.15,4.23,1.4,3.3,.65,9.68,.64,10.88-2.2,1.32-3.15-4.33-8.32-5.68-8.73-.08-.03-.42-.11-.69-.4-.59-.62-.37-1.63-.35-1.8,.32-2.2-9.83-13.07-23.22-13.33-1.97-.04-6.3,.11-6.31,.33Z"/>
    <path class="cls-2" d="M83.32,58.6c.43,.88,1.8,1.11,2.67,1.07,1.41-.07,2.19-.88,3.13-1.47,1.63-1.01,2.85-.76,8.47-.67,5.13,.09,4.64-.11,7,0,4.79,.23,8.82,1.15,13.87,2.6,11.63,3.34,17.44,5.01,24.47,8.2,2.51,1.14,6.24,2.94,10.93,2.33,3.21-.41,6.18-1.86,6.13-2-.04-.11-2.12,.77-4.53,1-4.17,.4-6.63-1.41-12.2-3.93-4.03-1.82-7.04-2.82-13.07-4.8-4.34-1.43-8.06-2.45-11.07-3.2-4.27-1.06-8.19-2.02-13.05-2.49-3.19-.31-6.55-.38-6.55-.38-2.44-.05-4.53,0-4.53,0-3.51,.09-3.67,.29-5.27,.13-2.43-.24-2.83-.8-3.93-.4-1.69,.61-3.08,2.77-2.47,4Z"/>
    <path class="cls-4" d="M148.12,51.67c-.96-.22-1.96,.04-2.6,.47-1.77,1.18-2.11,4.53-1.07,6.87,1.23,2.76,3.36,1.81,6.8,5.27,2.06,2.07,3.23,4.34,5.14,8.09,.82,1.61,1.24,2.43,1.52,3.51,.71,2.7,.48,5.56,.33,7.2-.17,1.94-.42,2.74-.13,2.87,.47,.2,1.97-1.63,2.6-3.73,.57-1.9,.28-3.54,.14-4.28-.89-4.68-2.67-9.08-3.41-10.92,0,0-4.05-10.12-7.33-14-.37-.44-1.01-1.11-2-1.33Z"/>
    <path class="cls-6" d="M81.75,42.89c-.93,1.11-.78,2.96,.41,3.79,1.26,.88,3.15,.25,3.8-1.12,.51-1.08,.22-2.59-.93-3.28-1.12-.68-2.53-.28-3.28,.61Z"/>
  </g>
  <g id="Gorro">
    <g>
      <path class="cls-3" d="M80.37,24.08c.09,1.88,.09,3.41,.07,4.48-.07,4.15-.11,6.22-.18,6.44-.04,.13-.19,.57-.01,.72,.23,.19,.88-.24,1.02-.33,1.68-1.06,8.38-1.91,13.61-1.63,3.2,.17,5.59,.75,6.13,.89h0c2.19,.17,3.68,.75,4.66,1.28,.46,.25,.91,.54,1.24,.36,.59-.32,.21-1.81-.04-3.94,0,0-.31-2.65-.27-5.78,.05-2.99,.28-4.48-.18-5.51-.78-1.74-2.33-2.61-3.53-3.26-.86-.47-2.4-1.18-7.94-1.63-1.28-.1-5.42-.4-9.85,.4-.98,.18-2.35,.48-3.42,1.61-.25,.26-1.12,1.2-1.28,2.6-.2,1.74,.88,2.57,.51,3.04-.63,.81-4.97-.17-6.54-3.26-1.15-2.27-.66-5.4,.49-5.8,1.2-.41,3.15,2.1,3.2,2.04,.05-.05-1.86-1.37-2.84-3.47-.11-.23-1.69-3.76,.18-6.76,1.58-2.53,4.97-3.64,5.6-2.95,.49,.54-.59,2.26-.45,2.33,.13,.06,.77-1.46,1.78-2.67,1.58-1.9,4.17-3.13,6.76-3.17,2.11-.03,4.32,.72,5.42,2.1,.18,.23,.76,.96,.53,1.51-.13,.32-.46,.38-1.21,.77-.86,.45-1.57,.96-1.54,1,.05,.09,2.7-1.89,5.96-2.53,.81-.16,5.95-1.16,9.77,2.26,2.46,2.2,3.32,5.28,3.38,7.02,.02,.72-.06,1.43-.06,1.43-.26,2.19-1.21,3.62-1.18,3.63,.02,0,.72-.99,1-2.52,.15-.82,.04-1.03,.19-1.11,.83-.48,6.9,4.66,5.84,9.32-.29,1.28-1.24,3.05-2.57,4.36-.31,.3-1.05,.99-1.07,.97-.03-.03,1.27-1.72,1.69-1.51,.53,.26,.48,4.02-2.22,5.78-2.1,1.37-5.26,1.13-6.13-.27-.21-.34-.18-.58-.16-1.85,0,0,.05-2.4-.05-6.01-.05-1.96-.08-2.94-.24-3.43-1.55-4.71-12.16-5.03-13.61-5.06-2.93-.06-10.64-.22-12.16,3.63-.53,1.35-.16,2.82,.35,3.98"/>
      <path class="cls-3" d="M75.54,16.43c.23,.38,.73,1.1,1.64,1.64,1.19,.71,2.35,.7,2.8,.67"/>
      <path class="cls-3" d="M79.99,9.9c-.68,1.57-.5,3.36,.49,4.67,1.11,1.47,2.78,1.69,3.11,1.73"/>
      <path class="cls-3" d="M82.57,12.83c.08,.4,.3,1.13,.89,1.82,.32,.38,.66,.63,.93,.8"/>
      <path class="cls-3" d="M89.63,7.01c-.04,.76-.02,1.73,.18,2.84,.2,1.15,.54,2.09,.84,2.8"/>
      <path class="cls-3" d="M92.08,9.32c-.15,.59-.34,1.61-.13,2.84,.16,.96,.49,1.7,.76,2.18"/>
      <path class="cls-3" d="M105.46,9.81c.09,.32,.48,1.91-.44,3.38-.43,.68-.98,1.08-1.33,1.29"/>
      <path class="cls-3" d="M106.4,13.06c-.28,.67-.8,1.67-1.73,2.67-.91,.97-1.85,1.54-2.49,1.87"/>
      <path class="cls-3" d="M110.43,18.83c-.41,.4-.89,.83-1.47,1.24-.93,.68-1.82,1.14-2.57,1.46"/>
      <path class="cls-3" d="M113.38,23.99c-.43,.4-1.12,.92-2.09,1.24-2.27,.77-4.29-.16-4.78-.41"/>
      <path class="cls-3" d="M111.34,30.35c-.25-.41-.77-1.12-1.69-1.69-.77-.48-1.42-.69-2.9-.76"/>
    </g>
  </g>
  <g id="titulo">
    <g>
      <path d="M71.06,83.88c-.3,.41-.67,.73-1.1,.99-.43,.25-.9,.46-1.41,.61-.76,.3-1.53,.54-2.32,.72-.79,.18-1.58,.32-2.39,.42-.56,.1-1.14,.18-1.75,.23-.61,.05-1.19,.1-1.75,.15-.41,0-.8,.01-1.18,.04-.38,.02-.77,.06-1.18,.11-1.17,.1-2.32,.14-3.46,.11-1.14-.03-2.29-.06-3.46-.11-1.52,0-3.04-.08-4.56-.23-.56,0-1.09-.03-1.6-.08-.51-.05-1.04-.13-1.6-.23-.81-.1-1.62-.2-2.43-.3-.81-.1-1.65-.2-2.51-.3-1.17-.2-2.31-.39-3.42-.57-1.11-.18-2.25-.39-3.42-.65-.76-.1-1.52-.23-2.28-.38-.76-.15-1.52-.28-2.28-.38-.56-.1-1.13-.18-1.71-.23-.58-.05-1.15-.13-1.71-.23-.51-.1-.99-.18-1.44-.23-.46-.05-.94-.1-1.44-.15-.3-.05-.61-.09-.91-.11-.3-.03-.61-.04-.91-.04-.71-.1-1.44-.14-2.2-.11-.76,.03-1.5,.04-2.2,.04-.46-.1-.84,.08-1.14,.53-1.47,2.13-3.17,4.13-5.09,6-.51,.46-1.03,.89-1.56,1.29-.53,.41-1.08,.76-1.63,1.06-.3,.15-.61,.29-.91,.42-.3,.13-.63,.19-.99,.19-.1,0-.15,.03-.15,.08h-.38c0-.05-.05-.08-.15-.08-.76-.1-1.27-.41-1.52-.91,0-.05-.04-.09-.11-.11-.08-.03-.06-.09,.04-.19,.1-.1,.23-.13,.38-.08,.46,.15,.89,.18,1.29,.08,.4-.1,.81-.25,1.22-.46,.61-.3,1.15-.66,1.63-1.06,.48-.41,.95-.81,1.41-1.22,.71-.61,1.35-1.25,1.94-1.94,.58-.68,1.15-1.38,1.71-2.09,.15-.2,.3-.38,.46-.53s.28-.36,.38-.61c-.1,0-.17-.01-.19-.04-.03-.03-.09-.01-.19,.04-1.01,.2-2.03,.46-3.04,.76-1.01,.3-1.98,.71-2.89,1.22-.56,.3-1.05,.62-1.48,.95-.43,.33-.85,.7-1.25,1.1-.2,.25-.38,.51-.53,.76-.15,.25-.25,.53-.3,.84,0,.25,.08,.41,.23,.46,.15,.05,.33,.18,.53,.38,.15,.2,.1,.35-.15,.46-.3,0-.58-.08-.84-.23-.25-.2-.47-.43-.65-.68-.18-.25-.34-.51-.49-.76v-.76c.15-.36,.32-.7,.49-1.03,.18-.33,.39-.62,.65-.87,.71-.76,1.49-1.37,2.36-1.82,1.01-.61,2.04-1.09,3.08-1.44,1.04-.36,2.14-.63,3.31-.84,.4-.1,.78-.18,1.14-.23,.35-.05,.73-.1,1.14-.15,.25,0,.46-.1,.61-.3,1.11-1.77,2.06-3.57,2.85-5.4,.79-1.82,1.53-3.7,2.24-5.62,.81-2.38,1.57-4.75,2.28-7.11,.71-2.36,1.42-4.75,2.13-7.18,.61-2.08,1.24-4.1,1.9-6.08,.66-1.98,1.37-3.95,2.13-5.93,.76-1.98,1.56-3.93,2.39-5.85,.84-1.92,1.76-3.83,2.77-5.7,.2-.3,.39-.62,.57-.95,.18-.33,.37-.65,.57-.95,.15-.35,.28-.71,.38-1.06,.1-.35,.2-.71,.3-1.06,.4-1.32,.89-2.58,1.44-3.8,.56-1.22,1.19-2.41,1.9-3.57,.4-.71,.81-1.39,1.22-2.05,.4-.66,.89-1.29,1.44-1.9,.61-.71,1.25-1.35,1.94-1.94,.68-.58,1.46-1.08,2.32-1.48,.66-.35,1.32-.56,1.98-.61h.91c.66,.1,1.14,.33,1.44,.68,.2,.15,.3,.35,.3,.61,0,.1-.13,.23-.38,.38-.1,.1-.19,.22-.27,.34-.08,.13-.17,.24-.27,.34s-.15,.18-.15,.23c-.15,.25-.33,.28-.53,.08-.2-.2-.33-.3-.38-.3s-.18,.1-.38,.3c-.61,.56-1.19,1.13-1.75,1.71-.56,.58-1.11,1.2-1.67,1.86-1.12,1.27-2.15,2.57-3.12,3.91-.96,1.34-1.9,2.72-2.81,4.14-.41,.71-.81,1.39-1.22,2.05-.41,.66-.81,1.34-1.22,2.05-.15,.3-.25,.61-.3,.91-.05,.3-.1,.61-.15,.91-.05,.56-.06,1.08-.04,1.56,.02,.48,.11,.98,.27,1.48,.3,.91,.86,1.62,1.67,2.13,.15,.15,.38,.33,.68,.53,.3,.2,.35,.41,.15,.61-.1,.15-.28,.15-.53,0-1.82-1.11-2.99-2.66-3.5-4.64,0-.05-.01-.06-.04-.04-.03,.03-.04,.06-.04,.11-.41,.71-.76,1.42-1.06,2.13-.3,.71-.63,1.42-.99,2.13-.41,.91-.77,1.81-1.1,2.7-.33,.89-.67,1.76-1.03,2.62-.61,1.52-1.18,3.04-1.71,4.56-.53,1.52-1.05,3.07-1.56,4.64-.56,1.67-1.06,3.34-1.52,5.02-.46,1.67-.96,3.37-1.52,5.09-.56,1.93-1.14,3.82-1.75,5.7-.61,1.87-1.29,3.75-2.05,5.62-.41,1.01-.86,2.03-1.37,3.04-.51,1.01-1.06,2-1.67,2.96-.05,.05-.08,.13-.08,.23,.4,.05,.78,.08,1.14,.08h1.14c.66,.05,1.29,.1,1.9,.15,.61,.05,1.24,.1,1.9,.15,.51,.1,.99,.16,1.44,.19,.46,.02,.94,.09,1.44,.19,.61,.1,1.23,.19,1.86,.27,.63,.08,1.25,.16,1.86,.27l3.65,.68c.56,.1,1.11,.19,1.67,.27,.56,.08,1.11,.16,1.67,.27,.51,.1,1.01,.19,1.52,.27,.51,.08,1.01,.16,1.52,.27,.51,.1,1,.18,1.48,.23,.48,.05,.97,.1,1.48,.15,.46,.1,.91,.16,1.37,.19,.46,.02,.91,.09,1.37,.19l2.51,.23c.35,.05,.7,.09,1.03,.11,.33,.02,.7,.06,1.1,.11,.76,0,1.53,.01,2.32,.04,.78,.03,1.58,.06,2.39,.11,.86,.05,1.72,.05,2.58,0,.86-.05,1.72-.08,2.58-.08,1.11,0,2.2-.08,3.27-.23,1.16-.1,2.34-.24,3.53-.42,1.19-.18,2.34-.47,3.46-.87,.35-.15,.67-.3,.95-.46,.28-.15,.54-.36,.8-.61,.25-.2,.48-.2,.68,0,.15,.1,.35,.28,.61,.53v.3ZM43.55,15.48c-1.17,.76-2.17,1.67-3,2.74-.84,1.06-1.61,2.18-2.32,3.34,.81-1.06,1.66-2.1,2.55-3.12,.89-1.01,1.81-2,2.77-2.96Z"/>
      <path d="M78.28,45.95c-.2,.2-.38,.41-.53,.61-.15,.2-.33,.41-.53,.61-1.77,1.93-3.77,3.52-6,4.79-.66,.41-1.32,.76-1.98,1.06-.66,.3-1.34,.58-2.05,.84-.96,.35-1.77,.25-2.43-.3-.96-.91-1.34-1.93-1.14-3.04,.05-.25,.08-.48,.08-.68s.02-.43,.08-.68c-.1,0-.23,.08-.38,.23-1.11,1.01-2.24,1.98-3.38,2.89-1.14,.91-2.34,1.77-3.61,2.58-.25,.15-.53,.29-.84,.42-.3,.13-.61,.24-.91,.34h-.46c-.35-.1-.63-.29-.84-.57-.2-.28-.38-.57-.53-.87v-.61c.1-.05,.14-.11,.11-.19-.03-.08-.01-.14,.04-.19,.1-.4,.24-.78,.42-1.14,.18-.35,.37-.73,.57-1.14,.71-1.17,1.47-2.23,2.28-3.19,.3-.35,.61-.7,.91-1.03,.3-.33,.66-.65,1.06-.95,.46-.4,.91-.79,1.37-1.14,.46-.35,.96-.66,1.52-.91,.4-.25,.81-.44,1.22-.57,.41-.13,.81-.24,1.22-.34h1.14c.86,.2,1.6,.63,2.2,1.29,.46,.56,.73,1.27,.84,2.13v.84c.05,.1,.02,.2-.08,.3-.15,0-.25-.03-.3-.08-.15-.15-.29-.32-.42-.49-.13-.18-.19-.39-.19-.65,0-.2-.05-.56-.15-1.06-.1-.4-.29-.7-.57-.87-.28-.18-.6-.27-.95-.27-.76-.05-1.47,.08-2.13,.38-.66,.3-1.29,.66-1.9,1.06-1.22,.76-2.33,1.72-3.34,2.89-.71,.76-1.36,1.57-1.94,2.43-.58,.86-1.08,1.8-1.48,2.81-.05,.1-.08,.2-.08,.3s-.03,.2-.08,.3c-.05,.05-.05,.13,0,.23,.1,0,.15-.02,.15-.08,.4-.1,.77-.27,1.1-.49,.33-.23,.67-.47,1.03-.72,1.32-.91,2.63-1.92,3.95-3.04,.61-.56,1.22-1.08,1.82-1.56,.61-.48,1.19-1,1.75-1.56,.25-.2,.56-.2,.91,0,.35,.25,.56,.49,.61,.72,.05,.23,.02,.55-.08,.95-.1,.41-.2,.81-.3,1.22-.1,.41-.2,.81-.3,1.22-.05,.25-.06,.49-.04,.72,.02,.23,.06,.47,.11,.72,.15,.35,.48,.51,.99,.46,.61-.1,1.18-.29,1.71-.57,.53-.28,1.08-.54,1.63-.8,.86-.4,1.68-.86,2.47-1.37,.79-.51,1.53-1.06,2.24-1.67,.61-.46,1.16-.94,1.67-1.44l1.6-1.6c.2-.2,.34-.3,.42-.3s.21,.1,.42,.3c.15,.15,.25,.23,.3,.23v.3Z"/>
      <path d="M79.19,43.14c.1,.05,.2,.1,.3,.15,.1,.05,.2,.13,.3,.23,.46,.35,.4,.74-.15,1.14-.15,.1-.28,.24-.38,.42-.1,.18-.2,.37-.3,.57-.56,.91-1.09,1.95-1.6,3.12,.2-.2,.38-.4,.53-.61,.15-.2,.3-.41,.46-.61,.71-.76,1.44-1.46,2.2-2.09,.76-.63,1.65-1.08,2.66-1.33,1.11-.35,2.2-.13,3.27,.68,.41,.41,.75,.84,1.03,1.29,.28,.46,.54,.91,.8,1.37,.3,.51,.56,1.01,.76,1.52,.41,.76,1.11,1.22,2.13,1.37,1.42,.15,2.8,.11,4.14-.11,1.34-.23,2.67-.62,3.99-1.18,1.37-.66,2.53-1.39,3.5-2.2,.15-.15,.33-.18,.53-.08,.1,.1,.18,.17,.23,.19,.05,.03,.13,.09,.23,.19,.25,.2,.25,.43,0,.68-.71,.61-1.47,1.15-2.28,1.63-.81,.48-1.65,.87-2.51,1.18-.71,.25-1.41,.47-2.09,.65-.68,.18-1.38,.32-2.09,.42-.61,.05-1.22,.06-1.82,.04-.61-.02-1.19-.09-1.75-.19-.66-.15-1.22-.42-1.67-.8-.46-.38-.86-.85-1.22-1.41-.36-.46-.65-.94-.87-1.44-.23-.51-.47-1.04-.72-1.6-.51-1.01-1.39-1.39-2.66-1.14-.56,.15-1.08,.38-1.56,.68-.48,.3-.92,.63-1.33,.99-1.22,1.01-2.31,2.28-3.27,3.8-.25,.41-.49,.8-.72,1.18-.23,.38-.39,.8-.49,1.25-.05,.15-.06,.29-.04,.42,.02,.13,.04,.24,.04,.34,.05,.1,.05,.2,0,.3-.05,.1-.1,.2-.15,.3h-.15c-.41-.25-.75-.53-1.03-.84-.28-.3-.49-.66-.65-1.06v-.46c.05-.25,.09-.47,.11-.65,.02-.18,.06-.39,.11-.65,.2-.56,.4-1.11,.61-1.67,.2-.56,.43-1.11,.68-1.67,.4-.81,.81-1.58,1.22-2.32,.4-.73,.94-1.41,1.6-2.01h.08Z"/>
      <path d="M112.33,41.62c.76,.15,1.37,.41,1.82,.76,1.27,.86,1.87,2,1.82,3.42,0,.35-.08,.73-.23,1.14-.15,.3-.36,.33-.61,.08-.3-.2-.41-.56-.3-1.06,.15-.71,.05-1.49-.3-2.36-.1-.25-.28-.42-.53-.49-.25-.08-.51-.16-.76-.27-.56-.1-1.09-.1-1.6,0-.51,.1-1.01,.25-1.52,.46-.96,.35-1.85,.8-2.66,1.33-.81,.53-1.57,1.13-2.28,1.79-.81,.71-1.57,1.46-2.28,2.24-.71,.79-1.34,1.61-1.9,2.47-.35,.56-.66,1.12-.91,1.67-.25,.56-.43,1.17-.53,1.82-.1,.56-.05,1.04,.15,1.44,.05,.15,.19,.27,.42,.34,.23,.08,.47,.09,.72,.04,1.06-.15,2.08-.44,3.04-.87,.96-.43,1.93-.87,2.89-1.33,1.47-.76,2.9-1.56,4.29-2.39,1.39-.84,2.8-1.66,4.22-2.47,.66-.4,1.3-.76,1.94-1.06,.63-.3,1.3-.58,2.01-.84,1.01-.4,1.87-.3,2.58,.3,.71,.61,1.09,1.32,1.14,2.13,.15,1.42,.1,2.91-.15,4.48-.1,.41-.18,.77-.23,1.1-.05,.33-.13,.7-.23,1.1,.25-.05,.48-.23,.68-.53l4.79-3.65c.71-.51,1.41-1,2.09-1.48,.68-.48,1.41-.92,2.17-1.33,.35-.2,.7-.39,1.03-.57,.33-.18,.67-.34,1.03-.49,.25-.1,.46-.09,.61,.04,.15,.13,.3,.24,.46,.34l.15,.15v.3c-.2,.2-.56,.41-1.06,.61-.91,.46-1.77,.98-2.58,1.56-.81,.58-1.62,1.15-2.43,1.71-.91,.66-1.79,1.32-2.62,1.98-.84,.66-1.69,1.34-2.55,2.05-.41,.3-.77,.61-1.1,.91-.33,.3-.7,.61-1.1,.91-.1,.1-.15,.25-.15,.46-.61,2.43-1.29,4.84-2.05,7.22s-1.62,4.74-2.58,7.07c-.71,1.77-1.5,3.51-2.36,5.21-.86,1.7-1.8,3.36-2.81,4.98-.56,.86-1.13,1.72-1.71,2.58-.58,.86-1.23,1.7-1.94,2.51-.41,.46-.82,.91-1.25,1.37-.43,.46-.87,.89-1.33,1.29-.71,.71-1.47,1.33-2.28,1.86-.81,.53-1.72,.92-2.74,1.18l-.91,.23h-.91c-.25-.1-.49-.18-.72-.23-.23-.05-.47-.13-.72-.23-1.27-.66-2.03-1.75-2.28-3.27-.2-.86-.22-1.72-.04-2.58,.18-.86,.42-1.72,.72-2.58,.46-1.32,1.03-2.56,1.71-3.72,.68-1.17,1.43-2.33,2.24-3.5,.46-.66,.92-1.29,1.41-1.9,.48-.61,.97-1.22,1.48-1.82,1.01-1.22,2.06-2.39,3.15-3.53,1.09-1.14,2.19-2.27,3.31-3.38,.71-.71,1.41-1.37,2.09-1.98,.68-.61,1.38-1.24,2.09-1.9,.56-.51,1.1-1,1.63-1.48s1.08-.95,1.63-1.41c.66-.56,1.3-1.1,1.94-1.63,.63-.53,1.28-1.08,1.94-1.63,.1-.1,.15-.2,.15-.3,.2-.86,.39-1.7,.57-2.51,.18-.81,.32-1.65,.42-2.51,.15-1.16,.2-2.23,.15-3.19,0-.2-.05-.51-.15-.91-.05-.3-.33-.4-.84-.3-.51,.1-.98,.25-1.41,.46-.43,.2-.87,.43-1.33,.68-1.27,.71-2.51,1.42-3.72,2.13-1.22,.71-2.46,1.42-3.72,2.13-1.06,.61-2.14,1.19-3.23,1.75-1.09,.56-2.22,1.04-3.38,1.44-.96,.35-1.8,.53-2.51,.53-1.01,0-1.88-.46-2.58-1.37-.35-.51-.54-1.01-.57-1.52-.03-.51,.04-1.04,.19-1.6,.25-.86,.58-1.63,.99-2.32,.4-.68,.86-1.35,1.37-2.01,.86-1.06,1.77-2.05,2.74-2.96,.91-.86,1.87-1.62,2.89-2.28,1.01-.66,2.1-1.19,3.27-1.6,.25-.1,.48-.16,.68-.19,.2-.02,.43-.09,.68-.19h1.22Zm7.52,19.23c-.3,.3-.53,.51-.68,.61-.71,.61-1.41,1.23-2.09,1.86s-1.38,1.25-2.09,1.86l-2.96,2.74c-1.37,1.32-2.7,2.63-3.99,3.95-1.29,1.32-2.52,2.68-3.69,4.1-1.32,1.57-2.56,3.19-3.72,4.86-.86,1.32-1.65,2.67-2.36,4.07-.71,1.39-1.24,2.88-1.6,4.45-.1,.56-.17,1.09-.19,1.6-.03,.51,.04,1.04,.19,1.6,.1,.2,.2,.39,.3,.57,.1,.18,.28,.32,.53,.42,.3,.1,.62,.16,.95,.19,.33,.03,.65,.01,.95-.04,.96-.15,1.95-.56,2.96-1.22,.71-.46,1.37-.95,1.98-1.48,.61-.53,1.22-1.1,1.82-1.71,.46-.56,.91-1.1,1.37-1.63,.46-.53,.89-1.08,1.29-1.63,1.17-1.62,2.23-3.31,3.19-5.05,.96-1.75,1.85-3.53,2.66-5.36,.71-1.62,1.38-3.27,2.01-4.94,.63-1.67,1.23-3.37,1.79-5.09,.25-.76,.49-1.53,.72-2.32,.23-.79,.44-1.58,.65-2.39Z"/>
      <path d="M133.99,51.04c.05-.56,.2-1.14,.46-1.75,.46-1.22,1.09-2.28,1.9-3.19,.76-.91,1.67-1.67,2.74-2.28,.3-.15,.62-.27,.95-.34,.33-.08,.67-.06,1.03,.04,.51,.15,.94,.46,1.29,.91s.35,.99,0,1.6c-.2,.3-.43,.3-.68,0-.2-.2-.28-.46-.23-.76,.1-.4,.14-.63,.11-.68-.03-.05-.24-.02-.65,.08-.76,.15-1.5,.53-2.2,1.14-1.47,1.27-2.56,2.86-3.27,4.79-.15,.61-.2,1.14-.15,1.6,0,.51,.2,.71,.61,.61,.71-.15,1.37-.38,1.98-.68,.81-.4,1.53-.87,2.17-1.41,.63-.53,1.25-1.13,1.86-1.79,.56-.56,1.05-1.15,1.48-1.79,.43-.63,.82-1.33,1.18-2.09,.2-.51,.3-.94,.3-1.29,0-.15-.08-.28-.23-.38-.46-.15-.86-.48-1.22-.99-.15-.2-.13-.4,.08-.61h.3c.2,.1,.39,.19,.57,.27,.18,.08,.34,.19,.49,.34,.2,.1,.33,.18,.38,.23,1.11,.25,2.2,.47,3.27,.65,1.06,.18,2.15,.32,3.27,.42,.66,.05,1.29,.05,1.9,0,.61-.05,1.22-.2,1.82-.46,.25-.1,.46-.05,.61,.15,.2,.2,.38,.35,.53,.46v.38c-.66,.25-1.42,.43-2.28,.53-.35,.05-.71,.08-1.06,.08h-1.06c-.56-.05-1.1-.1-1.63-.15-.53-.05-1.08-.13-1.63-.23-.46-.1-.91-.19-1.37-.27s-.91-.16-1.37-.27c-.15,0-.23,.05-.23,.15,0,.76-.15,1.44-.46,2.05s-.66,1.19-1.06,1.75c-.81,1.22-1.8,2.36-2.96,3.42-.61,.56-1.25,1.06-1.94,1.52-.68,.46-1.46,.81-2.32,1.06-.1,.05-.19,.06-.27,.04-.08-.02-.14,.01-.19,.11h-.53c-.71-.15-1.22-.43-1.52-.84-.46-.61-.71-1.16-.76-1.67v-.46Z"/>
      <path d="M162.95,40.63c.4,.05,.78,.2,1.14,.46,.71,.51,.79,1.12,.23,1.82-.15,.15-.3,.3-.46,.46-.15,.15-.33,.28-.53,.38-.2,.2-.38,.2-.53,0-.1-.1-.19-.2-.27-.3-.08-.1-.01-.23,.19-.38,.1-.15,.21-.3,.34-.46,.13-.15,.24-.33,.34-.53,0-.05,.02-.09,.08-.11,.05-.02,.05-.09,0-.19-.25-.05-.53-.05-.84,0-.3,.05-.58,.13-.84,.23-2.48,.71-4.79,1.9-6.92,3.57-.3,.25-.58,.49-.84,.72-.25,.23-.51,.49-.76,.8-.1,.1-.15,.18-.15,.23-.2,.46-.1,.71,.3,.76,.4,.15,.82,.25,1.25,.3,.43,.05,.87,.13,1.33,.23,.56,.05,1.14,.1,1.75,.15,.61,.05,1.19,.13,1.75,.23,.15,0,.28-.05,.38-.15,.81-.51,1.62-.99,2.43-1.44,.81-.46,1.65-.89,2.51-1.29,1.01-.46,2.01-.86,3-1.22,.99-.35,1.99-.73,3-1.14l.15-.08c.56-.4,1.09-.3,1.6,.3v.38c-.46,.2-.9,.38-1.33,.53s-.87,.33-1.33,.53c-2.79,1.01-5.52,2.36-8.21,4.03-.05,.05-.1,.08-.15,.08,.1,.1,.19,.18,.27,.23,.08,.05,.16,.13,.27,.23,.61,.51,.73,1.12,.38,1.82-.3,.51-.68,.96-1.14,1.37-.81,.76-1.66,1.43-2.55,2.01-.89,.58-1.84,1.1-2.85,1.56-.41,.25-.82,.46-1.25,.61-.43,.15-.87,.25-1.33,.3-.05,0-.08,.03-.08,.08h-.15c-.2-.1-.39-.16-.57-.19-.18-.02-.32-.14-.42-.34-.3-.41-.49-.71-.57-.91-.08-.2,.06-.53,.42-.99,.51-.71,1.06-1.33,1.67-1.86,.61-.53,1.27-1.05,1.98-1.56,.4-.35,.81-.67,1.22-.95,.4-.28,.81-.57,1.22-.87,.15,0,.18-.05,.08-.15h-.15c-1.12-.1-2.25-.25-3.42-.46-.41-.1-.81-.2-1.22-.3-.41-.1-.74-.35-.99-.76-.35-.46-.58-.82-.68-1.1-.1-.28,.05-.7,.46-1.25,.25-.35,.51-.65,.76-.87,.25-.23,.53-.47,.84-.72,2.03-1.57,4.21-2.71,6.54-3.42,.3-.1,.61-.18,.91-.23,.3-.05,.63-.1,.99-.15h.76Zm-9.8,15.66c.51-.15,1.04-.35,1.6-.61,2.08-.91,3.93-2.08,5.55-3.5,.46-.3,.81-.71,1.06-1.22,.2-.2,.25-.38,.15-.53,0-.05-.15-.11-.46-.19s-.51-.09-.61-.04c-.41,.3-.8,.6-1.18,.87-.38,.28-.77,.54-1.18,.8-1.22,.81-2.36,1.72-3.42,2.74-.61,.56-1.12,1.11-1.52,1.67Z"/>
      <path d="M190.3,4.68c.05,.1,.1,.17,.15,.19,.05,.03,.1,.06,.15,.11,.4,.3,.43,.71,.08,1.22-.2,.25-.38,.52-.53,.8-.15,.28-.33,.57-.53,.87-.81,1.37-1.6,2.74-2.36,4.1-.76,1.37-1.5,2.79-2.2,4.26-.41,.76-.79,1.52-1.14,2.28-.35,.76-.71,1.55-1.06,2.36,.46-.1,.9-.16,1.33-.19,.43-.02,.87-.09,1.33-.19,.41-.05,.82-.1,1.25-.15,.43-.05,.85-.13,1.25-.23,.4-.05,.8-.09,1.18-.11,.38-.02,.77-.06,1.18-.11l1.6-.23c.76-.05,1.52-.09,2.28-.11,.76-.02,1.54-.01,2.36,.04,1.47,0,2.79,.28,3.95,.84,.2,.1,.39,.22,.57,.34,.18,.13,.34,.29,.49,.49v.15c-.1,.25-.3,.3-.61,.15-.41-.25-.84-.42-1.29-.49-.46-.08-.94-.16-1.44-.27-.96-.05-1.98-.05-3.04,0-1.06,0-2.1,.08-3.12,.23-.41,.1-.79,.15-1.14,.15s-.74,.03-1.14,.08c-.41,.1-.82,.18-1.25,.23-.43,.05-.85,.1-1.25,.15-.51,.1-.99,.18-1.44,.23-.46,.05-.91,.1-1.37,.15-.41,.1-.77,.17-1.1,.19-.33,.03-.67,.09-1.03,.19-.15,0-.28,.1-.38,.3-1.82,4-3.5,8.03-5.02,12.08-.66,1.62-1.29,3.23-1.9,4.83-.61,1.6-1.19,3.21-1.75,4.83-.71,1.88-1.38,3.75-2.01,5.62-.63,1.88-1.25,3.75-1.86,5.62-.51,1.52-.98,3.04-1.41,4.56-.43,1.52-.82,3.07-1.18,4.64-.15,.56-.27,1.11-.34,1.67-.08,.56-.17,1.11-.27,1.67-.1,.61-.11,1.2-.04,1.79,.08,.58,.24,1.15,.49,1.71,.15,.15,.13,.3-.08,.46h-.3c-.41-.3-.7-.67-.87-1.1-.18-.43-.32-.87-.42-1.33-.15-1.01-.15-2,0-2.96,.15-.96,.35-1.95,.61-2.96,.66-2.94,1.44-5.83,2.36-8.66,.91-2.84,1.85-5.67,2.81-8.51,.71-2.03,1.43-4.04,2.17-6.04,.73-2,1.48-4.02,2.24-6.04,.61-1.62,1.23-3.22,1.86-4.79,.63-1.57,1.3-3.14,2.01-4.71,.2-.41,.38-.79,.53-1.14,.15-.35,.33-.73,.53-1.14-.66,.1-1.29,.2-1.9,.3-.61,.1-1.24,.2-1.9,.3-.86,.2-1.75,.39-2.66,.57-.91,.18-1.82,.37-2.74,.57-1.22,.25-2.42,.54-3.61,.87-1.19,.33-2.39,.67-3.61,1.03-.3,.1-.52,.11-.65,.04-.13-.08-.32-.24-.57-.49-.05-.05-.08-.1-.08-.15s-.05-.1-.15-.15v-.15c.35-.15,.7-.29,1.03-.42,.33-.13,.67-.24,1.03-.34,1.17-.4,2.37-.76,3.61-1.06,1.24-.3,2.5-.58,3.76-.84,1.11-.25,2.22-.47,3.31-.65,1.09-.18,2.19-.37,3.31-.57,.41-.1,.79-.18,1.14-.23,.35-.05,.73-.1,1.14-.15,.2-.05,.33-.18,.38-.38,.81-1.77,1.65-3.42,2.51-4.94,.76-1.52,1.57-3.01,2.43-4.48,.86-1.47,1.75-2.94,2.66-4.41,.25-.4,.49-.8,.72-1.18,.23-.38,.49-.77,.8-1.18h.15Z"/>
      <path d="M199.5,45.95c-.2,.2-.38,.41-.53,.61-.15,.2-.33,.41-.53,.61-1.77,1.93-3.78,3.52-6,4.79-.66,.41-1.32,.76-1.98,1.06-.66,.3-1.34,.58-2.05,.84-.96,.35-1.77,.25-2.43-.3-.96-.91-1.34-1.93-1.14-3.04,.05-.25,.08-.48,.08-.68s.03-.43,.08-.68c-.1,0-.23,.08-.38,.23-1.12,1.01-2.24,1.98-3.38,2.89-1.14,.91-2.34,1.77-3.61,2.58-.25,.15-.53,.29-.84,.42-.3,.13-.61,.24-.91,.34h-.46c-.35-.1-.63-.29-.84-.57-.2-.28-.38-.57-.53-.87v-.61c.1-.05,.14-.11,.11-.19-.03-.08-.01-.14,.04-.19,.1-.4,.24-.78,.42-1.14,.18-.35,.37-.73,.57-1.14,.71-1.17,1.47-2.23,2.28-3.19,.3-.35,.61-.7,.91-1.03,.3-.33,.66-.65,1.06-.95,.46-.4,.91-.79,1.37-1.14,.46-.35,.96-.66,1.52-.91,.41-.25,.81-.44,1.22-.57,.4-.13,.81-.24,1.22-.34h1.14c.86,.2,1.6,.63,2.2,1.29,.46,.56,.73,1.27,.84,2.13v.84c.05,.1,.03,.2-.08,.3-.15,0-.25-.03-.3-.08-.15-.15-.29-.32-.42-.49-.13-.18-.19-.39-.19-.65,0-.2-.05-.56-.15-1.06-.1-.4-.29-.7-.57-.87-.28-.18-.6-.27-.95-.27-.76-.05-1.47,.08-2.13,.38-.66,.3-1.29,.66-1.9,1.06-1.22,.76-2.33,1.72-3.34,2.89-.71,.76-1.36,1.57-1.94,2.43-.58,.86-1.08,1.8-1.48,2.81-.05,.1-.08,.2-.08,.3s-.03,.2-.08,.3c-.05,.05-.05,.13,0,.23,.1,0,.15-.02,.15-.08,.41-.1,.77-.27,1.1-.49,.33-.23,.67-.47,1.03-.72,1.32-.91,2.63-1.92,3.95-3.04,.61-.56,1.22-1.08,1.82-1.56,.61-.48,1.19-1,1.75-1.56,.25-.2,.56-.2,.91,0,.35,.25,.56,.49,.61,.72,.05,.23,.03,.55-.08,.95-.1,.41-.2,.81-.3,1.22-.1,.41-.2,.81-.3,1.22-.05,.25-.06,.49-.04,.72,.03,.23,.06,.47,.11,.72,.15,.35,.48,.51,.99,.46,.61-.1,1.18-.29,1.71-.57,.53-.28,1.08-.54,1.63-.8,.86-.4,1.68-.86,2.47-1.37,.79-.51,1.53-1.06,2.24-1.67,.61-.46,1.17-.94,1.67-1.44s1.04-1.04,1.6-1.6c.2-.2,.34-.3,.42-.3s.21,.1,.42,.3c.15,.15,.25,.23,.3,.23v.3Z"/>
    </g>
  </g>
  <g id="Subtitulo">
    <g>
      <path class="cls-5" d="M73.78,61.03c1.07,0,1.8,.74,1.8,1.64,0,.67-.26,1.12-.74,1.38,.55,.24,.95,.85,.95,1.57,0,.98-.74,1.97-2.08,1.97h-1.4c-.29,0-.51-.2-.51-.52v-5.52c0-.31,.23-.51,.51-.51h1.46Zm-.94,2.49h.94c.48,0,.76-.31,.76-.74s-.31-.72-.76-.72h-.94v1.46Zm0,3.02h.87c.59,0,1.04-.49,1.04-1s-.4-.99-1.04-.99h-.87v1.99Z"/>
      <path class="cls-5" d="M81.4,67.11c0,.32-.2,.52-.52,.52-.29,0-.51-.2-.51-.52v-.03c-.32,.34-.93,.66-1.54,.66-1.54,0-2.65-1.18-2.65-2.64s1.13-2.66,2.65-2.66c.67,0,1.2,.24,1.54,.63,0-.31,.23-.51,.51-.51,.32,0,.52,.21,.52,.51v4.03Zm-4.19-2.01c0,.88,.71,1.6,1.61,1.6s1.53-.72,1.53-1.6-.66-1.62-1.53-1.62-1.61,.72-1.61,1.62Z"/>
      <path class="cls-5" d="M83.23,63.08c.35-.38,.75-.54,1.28-.54,.3,0,.52,.15,.52,.51,0,.29-.14,.48-.45,.5-1.04,.06-1.29,.5-1.29,1.23v2.37c0,.26-.21,.48-.51,.48s-.52-.22-.52-.49v-4.02c0-.32,.14-.57,.51-.57,.3,0,.43,.2,.46,.52Z"/>
    </g>
    <g>
      <path class="cls-5" d="M104.24,60.5c1.2,0,2.08,.99,2.08,2.03,0,.82-.48,1.54-1.35,1.8l1.11,1.98c.05,.11,.08,.2,.08,.3,0,.29-.25,.5-.51,.5-.19,0-.35-.07-.47-.29l-1.25-2.24h-.56v2.01c0,.32-.2,.52-.52,.52-.29,0-.51-.2-.51-.52v-5.56c0-.31,.22-.51,.51-.51h1.4Zm-.87,3.03h.87c.58,0,1.04-.49,1.04-1.01s-.46-.99-1.04-.99h-.87v2Z"/>
      <path class="cls-5" d="M111.89,64.46c0,.35-.19,.53-.51,.53h-3.65c.13,.67,.82,1.18,1.52,1.18,.44,0,.82-.16,1.11-.45,.12-.11,.27-.18,.4-.18,.27,0,.49,.23,.49,.51,0,.14-.03,.28-.13,.39-.47,.51-1.12,.76-1.86,.76-1.46,0-2.65-1.18-2.65-2.64s1.19-2.66,2.65-2.66,2.65,1.18,2.65,2.55Zm-4.16-.32h3.02c-.13-.68-.82-1.19-1.51-1.19s-1.37,.52-1.51,1.19Z"/>
      <path class="cls-5" d="M114.96,64.49c.28,.27,.39,.61,.39,1.13,0,.76-.59,1.51-1.55,1.51-.41,0-.86-.15-1.12-.37-.17-.14-.3-.3-.3-.51,0-.24,.2-.5,.45-.5,.11,0,.23,.04,.34,.11,.18,.11,.38,.19,.63,.19,.36,0,.52-.21,.52-.49,0-.26-.1-.38-.23-.48-.28-.2-.63-.27-.94-.45-.42-.24-.67-.59-.67-1.18,0-.86,.61-1.44,1.44-1.44,.42,0,.87,.16,1.09,.47,.06,.09,.11,.22,.11,.39,0,.25-.14,.47-.46,.47-.12,0-.28-.05-.35-.15-.1-.13-.26-.2-.44-.2-.19,0-.37,.15-.37,.42,0,.25,.06,.35,.49,.52,.45,.18,.77,.35,.98,.56Z"/>
      <path class="cls-5" d="M117.04,62.07h.32c.31,0,.51,.2,.51,.52,0,.29-.21,.51-.51,.51h-.32v2.39c0,.48,.3,.56,.62,.58,.28,.03,.43,.23,.43,.53,0,.29-.21,.48-.6,.48-.84,0-1.49-.48-1.49-1.58v-2.4c-.27-.04-.43-.25-.43-.51,0-.29,.16-.49,.43-.51v-1.52c0-.32,.22-.52,.51-.52,.32,0,.52,.2,.52,.52v1.51Z"/>
      <path class="cls-5" d="M123.35,66.57c0,.32-.2,.52-.52,.52-.29,0-.51-.2-.51-.52v-.03c-.32,.34-.93,.66-1.54,.66-1.54,0-2.65-1.18-2.65-2.64s1.13-2.66,2.65-2.66c.67,0,1.2,.24,1.54,.63,0-.31,.23-.51,.51-.51,.32,0,.52,.21,.52,.51v4.03Zm-4.19-2.01c0,.88,.71,1.6,1.61,1.6s1.53-.72,1.53-1.6-.66-1.62-1.53-1.62-1.61,.72-1.61,1.62Z"/>
      <path class="cls-5" d="M127.52,66.65c-.24,.34-.66,.57-1.22,.57-1.3,0-2.09-.9-2.09-2.2v-2.48c0-.32,.2-.51,.51-.51,.3,0,.51,.19,.51,.51v2.48c0,.7,.39,1.17,1.12,1.17s1.09-.46,1.09-1.17v-2.48c0-.32,.2-.51,.52-.51,.29,0,.51,.19,.51,.51v4.11c0,.28-.2,.45-.44,.45-.3,0-.47-.14-.52-.45Z"/>
      <path class="cls-5" d="M130.33,62.55c.35-.38,.75-.54,1.28-.54,.3,0,.52,.15,.52,.51,0,.29-.14,.48-.45,.5-1.04,.06-1.29,.5-1.29,1.23v2.37c0,.26-.21,.48-.51,.48s-.52-.22-.52-.49v-4.02c0-.31,.14-.57,.51-.57,.3,0,.43,.2,.46,.52Z"/>
      <path class="cls-5" d="M137.28,66.57c0,.32-.2,.52-.52,.52-.29,0-.51-.2-.51-.52v-.03c-.32,.34-.93,.66-1.54,.66-1.54,0-2.65-1.18-2.65-2.64s1.13-2.66,2.65-2.66c.67,0,1.2,.24,1.54,.63,0-.31,.23-.51,.51-.51,.32,0,.52,.21,.52,.51v4.03Zm-4.19-2.01c0,.88,.71,1.6,1.61,1.6s1.53-.72,1.53-1.6-.66-1.62-1.53-1.62-1.61,.72-1.61,1.62Z"/>
      <path class="cls-5" d="M139.1,62.48c.32-.34,.78-.57,1.34-.57,1.3,0,2.13,.99,2.13,2.29v2.39c0,.32-.2,.51-.51,.51-.3,0-.51-.19-.51-.51v-2.39c0-.7-.43-1.26-1.16-1.26s-1.21,.55-1.21,1.26v2.39c0,.32-.2,.51-.52,.51-.29,0-.51-.19-.51-.51v-4.1c0-.28,.2-.45,.44-.45,.3,0,.47,.14,.52,.45Z"/>
      <path class="cls-5" d="M144.54,62.07h.32c.31,0,.51,.2,.51,.52,0,.29-.21,.51-.51,.51h-.32v2.39c0,.48,.3,.56,.62,.58,.28,.03,.43,.23,.43,.53,0,.29-.21,.48-.6,.48-.84,0-1.49-.48-1.49-1.58v-2.4c-.27-.04-.43-.25-.43-.51,0-.29,.16-.49,.43-.51v-1.52c0-.32,.22-.52,.51-.52,.32,0,.52,.2,.52,.52v1.51Z"/>
    </g>
  </g>
</svg>