<?xml version="1.0" standalone="no"?>
<!DOCTYPE svg PUBLIC "-//W3C//DTD SVG 20010904//EN"
 "http://www.w3.org/TR/2001/REC-SVG-20010904/DTD/svg10.dtd">
<svg version="1.0" xmlns="http://www.w3.org/2000/svg"
 width="24.000000pt" height="24.000000pt" viewBox="0 0 24.000000 24.000000"
 preserveAspectRatio="xMidYMid meet">

<g transform="translate(0.000000,24.000000) scale(0.100000,-0.100000)"
fill="#000000" stroke="none">
<path d="M58 213 c6 -2 18 -2 25 0 6 3 1 5 -13 5 -14 0 -19 -2 -12 -5z"/>
<path d="M163 213 c9 -2 23 -2 30 0 6 3 -1 5 -18 5 -16 0 -22 -2 -12 -5z"/>
<path d="M3 194 c-3 -8 1 -22 10 -31 12 -12 21 -13 44 -5 28 10 28 10 3 11
-14 1 -32 6 -40 11 -13 9 -13 11 0 20 11 7 11 10 2 10 -7 0 -15 -7 -19 -16z"/>
<path d="M220 200 c13 -9 13 -11 0 -20 -8 -5 -24 -10 -35 -11 -16 -1 -16 -2 5
-9 16 -4 30 -2 39 6 16 14 8 44 -11 44 -9 0 -9 -3 2 -10z"/>
<path d="M95 150 c-17 -7 -17 -9 -2 -9 16 -1 23 -31 19 -83 -1 -10 3 -18 8
-18 6 0 10 23 10 50 0 45 2 50 22 50 26 0 21 5 -12 13 -14 3 -34 1 -45 -3z"/>
<path d="M85 41 c-3 -5 -2 -12 3 -15 5 -3 9 1 9 9 0 17 -3 19 -12 6z"/>
<path d="M143 35 c0 -8 4 -12 9 -9 5 3 6 10 3 15 -9 13 -12 11 -12 -6z"/>
</g>
</svg>
