<?xml version="1.0" encoding="UTF-8"?>
<svg id="Capa_2" data-name="Capa 2" xmlns="http://www.w3.org/2000/svg" viewBox="0 0 24 22">
  <g id="mesa">
    <path d="M12,0C6.1,0,0,1.23,0,3.29v1.41c0,1.93,5.33,3.13,10.85,3.27v8.34c-2.32,.24-3.92,1.15-3.92,2.25v1.12c0,1.3,2.23,2.31,5.07,2.31s5.07-1.02,5.07-2.31v-1.12c0-1.1-1.6-2.01-3.92-2.25V7.97c5.51-.15,10.85-1.35,10.85-3.27v-1.41C24,1.23,17.9,0,12,0h0Zm0,.47c6.88,0,11.51,1.46,11.51,2.82s-4.62,2.82-11.51,2.82S.49,4.65,.49,3.29,5.12,.47,12,.47h0Zm4.58,19.22c0,.89-1.84,1.84-4.58,1.84s-4.58-.95-4.58-1.84v-.11c.81,.78,2.53,1.31,4.58,1.31s3.77-.53,4.58-1.31v.11Zm0-1.12c0,.89-1.84,1.84-4.58,1.84s-4.58-.95-4.58-1.84c0-.82,1.45-1.57,3.42-1.78v2.09c0,.4,.34,.72,.77,.72h.78c.42,0,.77-.32,.77-.72v-2.09c1.97,.21,3.42,.96,3.42,1.78Zm-3.92,.31c0,.14-.12,.26-.27,.26h-.78c-.15,0-.27-.11-.27-.26V7.98c.22,0,.44,0,.66,0s.44,0,.66,0v10.89Zm-.66-11.35C5.22,7.52,.49,6.04,.49,4.7v-.44c1.56,1.47,6.6,2.32,11.51,2.32s9.94-.85,11.51-2.32v.44c0,1.34-4.73,2.82-11.51,2.82h0Z"/>
  </g>
</svg>